<?xml version="1.0" encoding="UTF-8" standalone="no"?>
<!DOCTYPE svg PUBLIC "-//W3C//DTD SVG 1.1//EN"
 "http://www.w3.org/Graphics/SVG/1.1/DTD/svg11.dtd">
<!-- Generated by graphviz version 2.36.0 (20140111.2315)
 -->
<!-- Title: controllers_diagram Pages: 1 -->
<svg width="626pt" height="626pt"
 viewBox="0.00 0.00 626.00 626.00" xmlns="http://www.w3.org/2000/svg" xmlns:xlink="http://www.w3.org/1999/xlink">
<g id="graph0" class="graph" transform="scale(1 1) rotate(0) translate(4 622)">
<title>controllers_diagram</title>
<polygon fill="none" stroke="none" points="-4,4 -4,-622 622,-622 622,4 -4,4"/>
<!-- _diagram_info -->
<g id="node1" class="node"><title>_diagram_info</title>
<text text-anchor="start" x="376" y="-207.6" font-family="Times,serif" font-size="13.00">Controllers diagram</text>
<text text-anchor="start" x="376" y="-193.6" font-family="Times,serif" font-size="13.00">Date: Feb 17 2016 &#45; 16:18</text>
<text text-anchor="start" x="376" y="-179.6" font-family="Times,serif" font-size="13.00">Migration version: 20160125083854</text>
<text text-anchor="start" x="376" y="-165.6" font-family="Times,serif" font-size="13.00">Generated by RailRoady 1.4.2</text>
<text text-anchor="start" x="376" y="-151.6" font-family="Times,serif" font-size="13.00">http://railroady.prestonlee.com</text>
</g>
<!-- TeachersController -->
<g id="node2" class="node"><title>TeachersController</title>
<path fill="none" stroke="black" d="M188,-16.5C188,-16.5 285,-16.5 285,-16.5 291,-16.5 297,-22.5 297,-28.5 297,-28.5 297,-142.5 297,-142.5 297,-148.5 291,-154.5 285,-154.5 285,-154.5 188,-154.5 188,-154.5 182,-154.5 176,-148.5 176,-142.5 176,-142.5 176,-28.5 176,-28.5 176,-22.5 182,-16.5 188,-16.5"/>
<text text-anchor="middle" x="236.5" y="-139.3" font-family="Times,serif" font-size="14.00">TeachersController</text>
<polyline fill="none" stroke="black" points="176,-131.5 297,-131.5 "/>
<text text-anchor="start" x="184" y="-116.3" font-family="Times,serif" font-size="14.00">edit</text>
<text text-anchor="start" x="184" y="-101.3" font-family="Times,serif" font-size="14.00">getAchievement</text>
<text text-anchor="start" x="184" y="-86.3" font-family="Times,serif" font-size="14.00">getGrade</text>
<text text-anchor="start" x="184" y="-71.3" font-family="Times,serif" font-size="14.00">index</text>
<polyline fill="none" stroke="black" points="176,-63.5 297,-63.5 "/>
<polyline fill="none" stroke="black" points="176,-39.5 297,-39.5 "/>
<text text-anchor="start" x="184" y="-24.3" font-family="Times,serif" font-size="14.00">_layout</text>
</g>
<!-- StudentsController -->
<g id="node3" class="node"><title>StudentsController</title>
<path fill="none" stroke="black" d="M60,-464.5C60,-464.5 155,-464.5 155,-464.5 161,-464.5 167,-470.5 167,-476.5 167,-476.5 167,-605.5 167,-605.5 167,-611.5 161,-617.5 155,-617.5 155,-617.5 60,-617.5 60,-617.5 54,-617.5 48,-611.5 48,-605.5 48,-605.5 48,-476.5 48,-476.5 48,-470.5 54,-464.5 60,-464.5"/>
<text text-anchor="middle" x="107.5" y="-602.3" font-family="Times,serif" font-size="14.00">StudentsController</text>
<polyline fill="none" stroke="black" points="48,-594.5 167,-594.5 "/>
<text text-anchor="start" x="56" y="-579.3" font-family="Times,serif" font-size="14.00">edit_detail</text>
<text text-anchor="start" x="56" y="-564.3" font-family="Times,serif" font-size="14.00">index</text>
<text text-anchor="start" x="56" y="-549.3" font-family="Times,serif" font-size="14.00">show</text>
<text text-anchor="start" x="56" y="-534.3" font-family="Times,serif" font-size="14.00">update</text>
<polyline fill="none" stroke="black" points="48,-526.5 167,-526.5 "/>
<polyline fill="none" stroke="black" points="48,-502.5 167,-502.5 "/>
<text text-anchor="start" x="56" y="-487.3" font-family="Times,serif" font-size="14.00">_layout</text>
<text text-anchor="start" x="56" y="-472.3" font-family="Times,serif" font-size="14.00">studs_params</text>
</g>
<!-- AchievementsController -->
<g id="node4" class="node"><title>AchievementsController</title>
<path fill="none" stroke="black" d="M348,-368.5C348,-368.5 474,-368.5 474,-368.5 480,-368.5 486,-374.5 486,-380.5 486,-380.5 486,-509.5 486,-509.5 486,-515.5 480,-521.5 474,-521.5 474,-521.5 348,-521.5 348,-521.5 342,-521.5 336,-515.5 336,-509.5 336,-509.5 336,-380.5 336,-380.5 336,-374.5 342,-368.5 348,-368.5"/>
<text text-anchor="middle" x="411" y="-506.3" font-family="Times,serif" font-size="14.00">AchievementsController</text>
<polyline fill="none" stroke="black" points="336,-498.5 486,-498.5 "/>
<text text-anchor="start" x="344" y="-483.3" font-family="Times,serif" font-size="14.00">create</text>
<text text-anchor="start" x="344" y="-468.3" font-family="Times,serif" font-size="14.00">destroy</text>
<text text-anchor="start" x="344" y="-453.3" font-family="Times,serif" font-size="14.00">index</text>
<text text-anchor="start" x="344" y="-438.3" font-family="Times,serif" font-size="14.00">update</text>
<polyline fill="none" stroke="black" points="336,-430.5 486,-430.5 "/>
<polyline fill="none" stroke="black" points="336,-406.5 486,-406.5 "/>
<text text-anchor="start" x="344" y="-391.3" font-family="Times,serif" font-size="14.00">_layout</text>
<text text-anchor="start" x="344" y="-376.3" font-family="Times,serif" font-size="14.00">achievement_params</text>
</g>
<!-- RegistrationsController -->
<g id="node5" class="node"><title>RegistrationsController</title>
<path fill="none" stroke="black" d="M140,-192.5C140,-192.5 322,-192.5 322,-192.5 328,-192.5 334,-198.5 334,-204.5 334,-204.5 334,-318.5 334,-318.5 334,-324.5 328,-330.5 322,-330.5 322,-330.5 140,-330.5 140,-330.5 134,-330.5 128,-324.5 128,-318.5 128,-318.5 128,-204.5 128,-204.5 128,-198.5 134,-192.5 140,-192.5"/>
<text text-anchor="middle" x="231" y="-315.3" font-family="Times,serif" font-size="14.00">RegistrationsController</text>
<polyline fill="none" stroke="black" points="128,-307.5 334,-307.5 "/>
<text text-anchor="start" x="136" y="-292.3" font-family="Times,serif" font-size="14.00">after_sign_up_path_for</text>
<text text-anchor="start" x="136" y="-277.3" font-family="Times,serif" font-size="14.00">after_update_path_for</text>
<text text-anchor="start" x="136" y="-262.3" font-family="Times,serif" font-size="14.00">configure_account_update_params</text>
<text text-anchor="start" x="136" y="-247.3" font-family="Times,serif" font-size="14.00">configure_sign_up_params</text>
<polyline fill="none" stroke="black" points="128,-239.5 334,-239.5 "/>
<polyline fill="none" stroke="black" points="128,-215.5 334,-215.5 "/>
<text text-anchor="start" x="136" y="-200.3" font-family="Times,serif" font-size="14.00">_layout</text>
</g>
<!-- StudsController -->
<g id="node6" class="node"><title>StudsController</title>
<path fill="none" stroke="black" d="M12,-272.5C12,-272.5 90,-272.5 90,-272.5 96,-272.5 102,-278.5 102,-284.5 102,-284.5 102,-368.5 102,-368.5 102,-374.5 96,-380.5 90,-380.5 90,-380.5 12,-380.5 12,-380.5 6,-380.5 0,-374.5 0,-368.5 0,-368.5 0,-284.5 0,-284.5 0,-278.5 6,-272.5 12,-272.5"/>
<text text-anchor="middle" x="51" y="-365.3" font-family="Times,serif" font-size="14.00">StudsController</text>
<polyline fill="none" stroke="black" points="0,-357.5 102,-357.5 "/>
<text text-anchor="start" x="8" y="-342.3" font-family="Times,serif" font-size="14.00">create</text>
<polyline fill="none" stroke="black" points="0,-334.5 102,-334.5 "/>
<polyline fill="none" stroke="black" points="0,-310.5 102,-310.5 "/>
<text text-anchor="start" x="8" y="-295.3" font-family="Times,serif" font-size="14.00">_layout</text>
<text text-anchor="start" x="8" y="-280.3" font-family="Times,serif" font-size="14.00">stud_params</text>
</g>
<!-- ApplicationController -->
<g id="node7" class="node"><title>ApplicationController</title>
<path fill="none" stroke="black" d="M348,-16.5C348,-16.5 464,-16.5 464,-16.5 470,-16.5 476,-22.5 476,-28.5 476,-28.5 476,-96.5 476,-96.5 476,-102.5 470,-108.5 464,-108.5 464,-108.5 348,-108.5 348,-108.5 342,-108.5 336,-102.5 336,-96.5 336,-96.5 336,-28.5 336,-28.5 336,-22.5 342,-16.5 348,-16.5"/>
<text text-anchor="middle" x="406" y="-93.3" font-family="Times,serif" font-size="14.00">ApplicationController</text>
<polyline fill="none" stroke="black" points="336,-85.5 476,-85.5 "/>
<text text-anchor="start" x="344" y="-70.3" font-family="Times,serif" font-size="14.00">after_sign_in_path_for</text>
<polyline fill="none" stroke="black" points="336,-62.5 476,-62.5 "/>
<text text-anchor="start" x="344" y="-47.3" font-family="Times,serif" font-size="14.00">layout_by_resource</text>
<polyline fill="none" stroke="black" points="336,-39.5 476,-39.5 "/>
<text text-anchor="start" x="344" y="-24.3" font-family="Times,serif" font-size="14.00">_layout</text>
</g>
<!-- SessionsController -->
<g id="node8" class="node"><title>SessionsController</title>
<path fill="none" stroke="black" d="M12,-32.5C12,-32.5 135,-32.5 135,-32.5 141,-32.5 147,-38.5 147,-44.5 147,-44.5 147,-143.5 147,-143.5 147,-149.5 141,-155.5 135,-155.5 135,-155.5 12,-155.5 12,-155.5 6,-155.5 0,-149.5 0,-143.5 0,-143.5 0,-44.5 0,-44.5 0,-38.5 6,-32.5 12,-32.5"/>
<text text-anchor="middle" x="73.5" y="-140.3" font-family="Times,serif" font-size="14.00">SessionsController</text>
<polyline fill="none" stroke="black" points="0,-132.5 147,-132.5 "/>
<text text-anchor="start" x="8" y="-117.3" font-family="Times,serif" font-size="14.00">after_sign_out_path_for</text>
<text text-anchor="start" x="8" y="-102.3" font-family="Times,serif" font-size="14.00">create</text>
<text text-anchor="start" x="8" y="-87.3" font-family="Times,serif" font-size="14.00">destroy</text>
<polyline fill="none" stroke="black" points="0,-79.5 147,-79.5 "/>
<polyline fill="none" stroke="black" points="0,-55.5 147,-55.5 "/>
<text text-anchor="start" x="8" y="-40.3" font-family="Times,serif" font-size="14.00">_layout</text>
</g>
<!-- GradesController -->
<g id="node9" class="node"><title>GradesController</title>
<path fill="none" stroke="black" d="M204,-368.5C204,-368.5 290,-368.5 290,-368.5 296,-368.5 302,-374.5 302,-380.5 302,-380.5 302,-539.5 302,-539.5 302,-545.5 296,-551.5 290,-551.5 290,-551.5 204,-551.5 204,-551.5 198,-551.5 192,-545.5 192,-539.5 192,-539.5 192,-380.5 192,-380.5 192,-374.5 198,-368.5 204,-368.5"/>
<text text-anchor="middle" x="247" y="-536.3" font-family="Times,serif" font-size="14.00">GradesController</text>
<polyline fill="none" stroke="black" points="192,-528.5 302,-528.5 "/>
<text text-anchor="start" x="200" y="-513.3" font-family="Times,serif" font-size="14.00">create</text>
<text text-anchor="start" x="200" y="-498.3" font-family="Times,serif" font-size="14.00">destroy</text>
<text text-anchor="start" x="200" y="-483.3" font-family="Times,serif" font-size="14.00">index</text>
<text text-anchor="start" x="200" y="-468.3" font-family="Times,serif" font-size="14.00">new</text>
<text text-anchor="start" x="200" y="-453.3" font-family="Times,serif" font-size="14.00">show</text>
<text text-anchor="start" x="200" y="-438.3" font-family="Times,serif" font-size="14.00">update</text>
<polyline fill="none" stroke="black" points="192,-430.5 302,-430.5 "/>
<polyline fill="none" stroke="black" points="192,-406.5 302,-406.5 "/>
<text text-anchor="start" x="200" y="-391.3" font-family="Times,serif" font-size="14.00">_layout</text>
<text text-anchor="start" x="200" y="-376.3" font-family="Times,serif" font-size="14.00">grade_params</text>
</g>
<!-- HomeController -->
<g id="node10" class="node"><title>HomeController</title>
<path fill="none" stroke="black" d="M524,-0.5C524,-0.5 606,-0.5 606,-0.5 612,-0.5 618,-6.5 618,-12.5 618,-12.5 618,-81.5 618,-81.5 618,-87.5 612,-93.5 606,-93.5 606,-93.5 524,-93.5 524,-93.5 518,-93.5 512,-87.5 512,-81.5 512,-81.5 512,-12.5 512,-12.5 512,-6.5 518,-0.5 524,-0.5"/>
<text text-anchor="middle" x="565" y="-78.3" font-family="Times,serif" font-size="14.00">HomeController</text>
<polyline fill="none" stroke="black" points="512,-70.5 618,-70.5 "/>
<text text-anchor="start" x="520" y="-55.3" font-family="Times,serif" font-size="14.00">index</text>
<polyline fill="none" stroke="black" points="512,-47.5 618,-47.5 "/>
<polyline fill="none" stroke="black" points="512,-23.5 618,-23.5 "/>
<text text-anchor="start" x="520" y="-8.3" font-family="Times,serif" font-size="14.00">_layout</text>
</g>
</g>
</svg>
