<?xml version="1.0" encoding="UTF-8" standalone="no"?>
<!DOCTYPE svg PUBLIC "-//W3C//DTD SVG 1.1//EN"
 "http://www.w3.org/Graphics/SVG/1.1/DTD/svg11.dtd">
<!-- Generated by graphviz version 2.36.0 (20140111.2315)
 -->
<!-- Title: models_diagram Pages: 1 -->
<svg width="605pt" height="230pt"
 viewBox="0.00 0.00 605.00 230.00" xmlns="http://www.w3.org/2000/svg" xmlns:xlink="http://www.w3.org/1999/xlink">
<g id="graph0" class="graph" transform="scale(1 1) rotate(0) translate(4 226)">
<title>models_diagram</title>
<polygon fill="none" stroke="none" points="-4,4 -4,-226 601,-226 601,4 -4,4"/>
<!-- _diagram_info -->
<g id="node1" class="node"><title>_diagram_info</title>
<text text-anchor="start" x="8" y="-207.6" font-family="Times,serif" font-size="13.00">Models diagram</text>
<text text-anchor="start" x="8" y="-193.6" font-family="Times,serif" font-size="13.00">Date: Feb 17 2016 &#45; 16:18</text>
<text text-anchor="start" x="8" y="-179.6" font-family="Times,serif" font-size="13.00">Migration version: 20160125083854</text>
<text text-anchor="start" x="8" y="-165.6" font-family="Times,serif" font-size="13.00">Generated by RailRoady 1.4.2</text>
<text text-anchor="start" x="8" y="-151.6" font-family="Times,serif" font-size="13.00">http://railroady.prestonlee.com</text>
</g>
<!-- Grade -->
<g id="node2" class="node"><title>Grade</title>
<ellipse fill="none" stroke="black" cx="312" cy="-18" rx="32.2457" ry="18"/>
<text text-anchor="middle" x="312" y="-14.3" font-family="Times,serif" font-size="14.00">Grade</text>
</g>
<!-- Teacher -->
<g id="node3" class="node"><title>Teacher</title>
<ellipse fill="none" stroke="black" cx="271" cy="-183" rx="38.4949" ry="18"/>
<text text-anchor="middle" x="271" y="-179.3" font-family="Times,serif" font-size="14.00">Teacher</text>
</g>
<!-- Stud -->
<g id="node8" class="node"><title>Stud</title>
<ellipse fill="none" stroke="black" cx="366" cy="-90" rx="27" ry="18"/>
<text text-anchor="middle" x="366" y="-86.3" font-family="Times,serif" font-size="14.00">Stud</text>
</g>
<!-- Teacher&#45;&gt;Stud -->
<g id="edge1" class="edge"><title>Teacher&#45;&gt;Stud</title>
<path fill="none" stroke="#756cb8" d="M293.344,-160.597C309.055,-145.548 329.927,-125.554 345.268,-110.859"/>
<ellipse fill="none" stroke="#756cb8" cx="290.004" cy="-163.796" rx="4.00002" ry="4.00002"/>
<ellipse fill="#756cb8" stroke="#756cb8" cx="348.171" cy="-108.078" rx="4.00002" ry="4.00002"/>
</g>
<!-- Achievement -->
<g id="node4" class="node"><title>Achievement</title>
<ellipse fill="none" stroke="black" cx="420" cy="-18" rx="57.2688" ry="18"/>
<text text-anchor="middle" x="420" y="-14.3" font-family="Times,serif" font-size="14.00">Achievement</text>
</g>
<!-- Student -->
<g id="node5" class="node"><title>Student</title>
<ellipse fill="none" stroke="black" cx="366" cy="-183" rx="37.5442" ry="18"/>
<text text-anchor="middle" x="366" y="-179.3" font-family="Times,serif" font-size="14.00">Student</text>
</g>
<!-- Student&#45;&gt;Stud -->
<g id="edge2" class="edge"><title>Student&#45;&gt;Stud</title>
<path fill="none" stroke="#dc17d7" d="M366,-156.729C366,-144.118 366,-128.905 366,-116.292"/>
<ellipse fill="none" stroke="#dc17d7" cx="366" cy="-160.884" rx="4" ry="4"/>
<ellipse fill="#dc17d7" stroke="#dc17d7" cx="366" cy="-112.04" rx="4" ry="4"/>
</g>
<!-- AdminUser -->
<g id="node6" class="node"><title>AdminUser</title>
<ellipse fill="none" stroke="black" cx="546" cy="-183" rx="51.4931" ry="18"/>
<text text-anchor="middle" x="546" y="-179.3" font-family="Times,serif" font-size="14.00">AdminUser</text>
</g>
<!-- User -->
<g id="node7" class="node"><title>User</title>
<ellipse fill="none" stroke="black" cx="449" cy="-183" rx="26.949" ry="18"/>
<text text-anchor="middle" x="449" y="-179.3" font-family="Times,serif" font-size="14.00">User</text>
</g>
<!-- User&#45;&gt;Stud -->
<g id="edge3" class="edge"><title>User&#45;&gt;Stud</title>
<path fill="none" stroke="#dc970a" d="M429.901,-161.06C416.397,-146.255 398.376,-126.497 384.914,-111.738"/>
<ellipse fill="none" stroke="#dc970a" cx="432.599" cy="-164.018" rx="4.00002" ry="4.00002"/>
<ellipse fill="#dc970a" stroke="#dc970a" cx="382.146" cy="-108.703" rx="4.00002" ry="4.00002"/>
</g>
<!-- Stud&#45;&gt;Grade -->
<g id="edge4" class="edge"><title>Stud&#45;&gt;Grade</title>
<path fill="none" stroke="#49b963" d="M348.991,-66.951C343.116,-59.3355 336.507,-50.7678 330.517,-43.0036"/>
<ellipse fill="none" stroke="#49b963" cx="351.572" cy="-70.2976" rx="4.00002" ry="4.00002"/>
<polygon fill="#49b963" stroke="#49b963" points="330.433,-42.895 327.888,-32.2285 327.379,-38.9361 324.325,-34.9772 324.325,-34.9772 324.325,-34.9772 327.379,-38.9361 320.762,-37.7258 330.433,-42.895 330.433,-42.895"/>
</g>
<!-- Stud&#45;&gt;Achievement -->
<g id="edge5" class="edge"><title>Stud&#45;&gt;Achievement</title>
<path fill="none" stroke="#29f909" d="M383.083,-66.8549C388.624,-59.673 394.811,-51.6523 400.513,-44.2612"/>
<ellipse fill="none" stroke="#29f909" cx="380.428" cy="-70.2976" rx="4.00002" ry="4.00002"/>
<polygon fill="#29f909" stroke="#29f909" points="400.807,-43.8796 410.478,-38.7104 403.861,-39.9207 406.915,-35.9618 406.915,-35.9618 406.915,-35.9618 403.861,-39.9207 403.352,-33.2132 400.807,-43.8796 400.807,-43.8796"/>
</g>
</g>
</svg>
