<?xml version="1.0" encoding="UTF-8" standalone="no"?>
<!DOCTYPE svg PUBLIC "-//W3C//DTD SVG 1.1//EN"
 "http://www.w3.org/Graphics/SVG/1.1/DTD/svg11.dtd">
<!-- Generated by graphviz version 2.36.0 (20140111.2315)
 -->
<!-- Title: models_diagram Pages: 1 -->
<svg width="1094pt" height="628pt"
 viewBox="0.00 0.00 1094.00 628.00" xmlns="http://www.w3.org/2000/svg" xmlns:xlink="http://www.w3.org/1999/xlink">
<g id="graph0" class="graph" transform="scale(1 1) rotate(0) translate(4 624)">
<title>models_diagram</title>
<polygon fill="none" stroke="none" points="-4,4 -4,-624 1090,-624 1090,4 -4,4"/>
<!-- _diagram_info -->
<g id="node1" class="node"><title>_diagram_info</title>
<text text-anchor="start" x="8" y="-515.6" font-family="Times,serif" font-size="13.00">Models diagram</text>
<text text-anchor="start" x="8" y="-501.6" font-family="Times,serif" font-size="13.00">Date: Feb 17 2016 &#45; 16:18</text>
<text text-anchor="start" x="8" y="-487.6" font-family="Times,serif" font-size="13.00">Migration version: 20160125083854</text>
<text text-anchor="start" x="8" y="-473.6" font-family="Times,serif" font-size="13.00">Generated by RailRoady 1.4.2</text>
<text text-anchor="start" x="8" y="-459.6" font-family="Times,serif" font-size="13.00">http://railroady.prestonlee.com</text>
</g>
<!-- Grade -->
<g id="node2" class="node"><title>Grade</title>
<path fill="none" stroke="black" d="M420.5,-1C420.5,-1 527.5,-1 527.5,-1 533.5,-1 539.5,-7 539.5,-13 539.5,-13 539.5,-125 539.5,-125 539.5,-131 533.5,-137 527.5,-137 527.5,-137 420.5,-137 420.5,-137 414.5,-137 408.5,-131 408.5,-125 408.5,-125 408.5,-13 408.5,-13 408.5,-7 414.5,-1 420.5,-1"/>
<text text-anchor="middle" x="474" y="-121.8" font-family="Times,serif" font-size="14.00">Grade</text>
<polyline fill="none" stroke="black" points="408.5,-114 539.5,-114 "/>
<text text-anchor="start" x="416.5" y="-98.8" font-family="Times,serif" font-size="14.00">id :INTEGER</text>
<text text-anchor="start" x="416.5" y="-83.8" font-family="Times,serif" font-size="14.00">subject :varchar</text>
<text text-anchor="start" x="416.5" y="-68.8" font-family="Times,serif" font-size="14.00">grade :varchar</text>
<text text-anchor="start" x="416.5" y="-53.8" font-family="Times,serif" font-size="14.00">examdate :date</text>
<text text-anchor="start" x="416.5" y="-38.8" font-family="Times,serif" font-size="14.00">stud_id :integer</text>
<text text-anchor="start" x="416.5" y="-23.8" font-family="Times,serif" font-size="14.00">created_at :datetime</text>
<text text-anchor="start" x="416.5" y="-8.8" font-family="Times,serif" font-size="14.00">updated_at :datetime</text>
</g>
<!-- Teacher -->
<g id="node3" class="node"><title>Teacher</title>
<path fill="none" stroke="black" d="M244,-363C244,-363 420,-363 420,-363 426,-363 432,-369 432,-375 432,-375 432,-607 432,-607 432,-613 426,-619 420,-619 420,-619 244,-619 244,-619 238,-619 232,-613 232,-607 232,-607 232,-375 232,-375 232,-369 238,-363 244,-363"/>
<text text-anchor="middle" x="332" y="-603.8" font-family="Times,serif" font-size="14.00">Teacher</text>
<polyline fill="none" stroke="black" points="232,-596 432,-596 "/>
<text text-anchor="start" x="240" y="-580.8" font-family="Times,serif" font-size="14.00">id :INTEGER</text>
<text text-anchor="start" x="240" y="-565.8" font-family="Times,serif" font-size="14.00">email :varchar</text>
<text text-anchor="start" x="240" y="-550.8" font-family="Times,serif" font-size="14.00">encrypted_password :varchar</text>
<text text-anchor="start" x="240" y="-535.8" font-family="Times,serif" font-size="14.00">username :varchar</text>
<text text-anchor="start" x="240" y="-520.8" font-family="Times,serif" font-size="14.00">usertype :varchar</text>
<text text-anchor="start" x="240" y="-505.8" font-family="Times,serif" font-size="14.00">reset_password_token :varchar</text>
<text text-anchor="start" x="240" y="-490.8" font-family="Times,serif" font-size="14.00">reset_password_sent_at :datetime</text>
<text text-anchor="start" x="240" y="-475.8" font-family="Times,serif" font-size="14.00">remember_created_at :datetime</text>
<text text-anchor="start" x="240" y="-460.8" font-family="Times,serif" font-size="14.00">sign_in_count :integer</text>
<text text-anchor="start" x="240" y="-445.8" font-family="Times,serif" font-size="14.00">current_sign_in_at :datetime</text>
<text text-anchor="start" x="240" y="-430.8" font-family="Times,serif" font-size="14.00">last_sign_in_at :datetime</text>
<text text-anchor="start" x="240" y="-415.8" font-family="Times,serif" font-size="14.00">current_sign_in_ip :varchar</text>
<text text-anchor="start" x="240" y="-400.8" font-family="Times,serif" font-size="14.00">last_sign_in_ip :varchar</text>
<text text-anchor="start" x="240" y="-385.8" font-family="Times,serif" font-size="14.00">created_at :datetime</text>
<text text-anchor="start" x="240" y="-370.8" font-family="Times,serif" font-size="14.00">updated_at :datetime</text>
</g>
<!-- Stud -->
<g id="node8" class="node"><title>Stud</title>
<path fill="none" stroke="black" d="M496.5,-174.5C496.5,-174.5 603.5,-174.5 603.5,-174.5 609.5,-174.5 615.5,-180.5 615.5,-186.5 615.5,-186.5 615.5,-313.5 615.5,-313.5 615.5,-319.5 609.5,-325.5 603.5,-325.5 603.5,-325.5 496.5,-325.5 496.5,-325.5 490.5,-325.5 484.5,-319.5 484.5,-313.5 484.5,-313.5 484.5,-186.5 484.5,-186.5 484.5,-180.5 490.5,-174.5 496.5,-174.5"/>
<text text-anchor="middle" x="550" y="-310.3" font-family="Times,serif" font-size="14.00">Stud</text>
<polyline fill="none" stroke="black" points="484.5,-302.5 615.5,-302.5 "/>
<text text-anchor="start" x="492.5" y="-287.3" font-family="Times,serif" font-size="14.00">id :INTEGER</text>
<text text-anchor="start" x="492.5" y="-272.3" font-family="Times,serif" font-size="14.00">firstname :varchar</text>
<text text-anchor="start" x="492.5" y="-257.3" font-family="Times,serif" font-size="14.00">lastname :varchar</text>
<text text-anchor="start" x="492.5" y="-242.3" font-family="Times,serif" font-size="14.00">class_name :varchar</text>
<text text-anchor="start" x="492.5" y="-227.3" font-family="Times,serif" font-size="14.00">hobby :varchar</text>
<text text-anchor="start" x="492.5" y="-212.3" font-family="Times,serif" font-size="14.00">created_at :datetime</text>
<text text-anchor="start" x="492.5" y="-197.3" font-family="Times,serif" font-size="14.00">updated_at :datetime</text>
<text text-anchor="start" x="492.5" y="-182.3" font-family="Times,serif" font-size="14.00">user_id :integer</text>
</g>
<!-- Teacher&#45;&gt;Stud -->
<g id="edge1" class="edge"><title>Teacher&#45;&gt;Stud</title>
<path fill="none" stroke="#1749a2" d="M437.665,-365.659C438.78,-364.432 439.892,-363.211 441,-362 452.935,-348.952 465.894,-335.317 478.574,-322.25"/>
<ellipse fill="none" stroke="#1749a2" cx="434.747" cy="-368.888" rx="4.00002" ry="4.00002"/>
<ellipse fill="#1749a2" stroke="#1749a2" cx="481.586" cy="-319.156" rx="4.00002" ry="4.00002"/>
</g>
<!-- Achievement -->
<g id="node4" class="node"><title>Achievement</title>
<path fill="none" stroke="black" d="M569.5,-1C569.5,-1 684.5,-1 684.5,-1 690.5,-1 696.5,-7 696.5,-13 696.5,-13 696.5,-125 696.5,-125 696.5,-131 690.5,-137 684.5,-137 684.5,-137 569.5,-137 569.5,-137 563.5,-137 557.5,-131 557.5,-125 557.5,-125 557.5,-13 557.5,-13 557.5,-7 563.5,-1 569.5,-1"/>
<text text-anchor="middle" x="627" y="-121.8" font-family="Times,serif" font-size="14.00">Achievement</text>
<polyline fill="none" stroke="black" points="557.5,-114 696.5,-114 "/>
<text text-anchor="start" x="565.5" y="-98.8" font-family="Times,serif" font-size="14.00">id :INTEGER</text>
<text text-anchor="start" x="565.5" y="-83.8" font-family="Times,serif" font-size="14.00">title :varchar</text>
<text text-anchor="start" x="565.5" y="-68.8" font-family="Times,serif" font-size="14.00">description :varchar</text>
<text text-anchor="start" x="565.5" y="-53.8" font-family="Times,serif" font-size="14.00">achievment_date :date</text>
<text text-anchor="start" x="565.5" y="-38.8" font-family="Times,serif" font-size="14.00">stud_id :integer</text>
<text text-anchor="start" x="565.5" y="-23.8" font-family="Times,serif" font-size="14.00">created_at :datetime</text>
<text text-anchor="start" x="565.5" y="-8.8" font-family="Times,serif" font-size="14.00">updated_at :datetime</text>
</g>
<!-- Student -->
<g id="node5" class="node"><title>Student</title>
<path fill="none" stroke="black" d="M462,-363C462,-363 638,-363 638,-363 644,-363 650,-369 650,-375 650,-375 650,-607 650,-607 650,-613 644,-619 638,-619 638,-619 462,-619 462,-619 456,-619 450,-613 450,-607 450,-607 450,-375 450,-375 450,-369 456,-363 462,-363"/>
<text text-anchor="middle" x="550" y="-603.8" font-family="Times,serif" font-size="14.00">Student</text>
<polyline fill="none" stroke="black" points="450,-596 650,-596 "/>
<text text-anchor="start" x="458" y="-580.8" font-family="Times,serif" font-size="14.00">id :INTEGER</text>
<text text-anchor="start" x="458" y="-565.8" font-family="Times,serif" font-size="14.00">email :varchar</text>
<text text-anchor="start" x="458" y="-550.8" font-family="Times,serif" font-size="14.00">encrypted_password :varchar</text>
<text text-anchor="start" x="458" y="-535.8" font-family="Times,serif" font-size="14.00">username :varchar</text>
<text text-anchor="start" x="458" y="-520.8" font-family="Times,serif" font-size="14.00">usertype :varchar</text>
<text text-anchor="start" x="458" y="-505.8" font-family="Times,serif" font-size="14.00">reset_password_token :varchar</text>
<text text-anchor="start" x="458" y="-490.8" font-family="Times,serif" font-size="14.00">reset_password_sent_at :datetime</text>
<text text-anchor="start" x="458" y="-475.8" font-family="Times,serif" font-size="14.00">remember_created_at :datetime</text>
<text text-anchor="start" x="458" y="-460.8" font-family="Times,serif" font-size="14.00">sign_in_count :integer</text>
<text text-anchor="start" x="458" y="-445.8" font-family="Times,serif" font-size="14.00">current_sign_in_at :datetime</text>
<text text-anchor="start" x="458" y="-430.8" font-family="Times,serif" font-size="14.00">last_sign_in_at :datetime</text>
<text text-anchor="start" x="458" y="-415.8" font-family="Times,serif" font-size="14.00">current_sign_in_ip :varchar</text>
<text text-anchor="start" x="458" y="-400.8" font-family="Times,serif" font-size="14.00">last_sign_in_ip :varchar</text>
<text text-anchor="start" x="458" y="-385.8" font-family="Times,serif" font-size="14.00">created_at :datetime</text>
<text text-anchor="start" x="458" y="-370.8" font-family="Times,serif" font-size="14.00">updated_at :datetime</text>
</g>
<!-- Student&#45;&gt;Stud -->
<g id="edge2" class="edge"><title>Student&#45;&gt;Stud</title>
<path fill="none" stroke="#1751af" d="M550,-354.781C550,-347.616 550,-340.528 550,-333.622"/>
<ellipse fill="none" stroke="#1751af" cx="550" cy="-358.803" rx="4" ry="4"/>
<ellipse fill="#1751af" stroke="#1751af" cx="550" cy="-329.605" rx="4" ry="4"/>
</g>
<!-- AdminUser -->
<g id="node6" class="node"><title>AdminUser</title>
<path fill="none" stroke="black" d="M898,-378C898,-378 1074,-378 1074,-378 1080,-378 1086,-384 1086,-390 1086,-390 1086,-592 1086,-592 1086,-598 1080,-604 1074,-604 1074,-604 898,-604 898,-604 892,-604 886,-598 886,-592 886,-592 886,-390 886,-390 886,-384 892,-378 898,-378"/>
<text text-anchor="middle" x="986" y="-588.8" font-family="Times,serif" font-size="14.00">AdminUser</text>
<polyline fill="none" stroke="black" points="886,-581 1086,-581 "/>
<text text-anchor="start" x="894" y="-565.8" font-family="Times,serif" font-size="14.00">id :INTEGER</text>
<text text-anchor="start" x="894" y="-550.8" font-family="Times,serif" font-size="14.00">email :varchar</text>
<text text-anchor="start" x="894" y="-535.8" font-family="Times,serif" font-size="14.00">encrypted_password :varchar</text>
<text text-anchor="start" x="894" y="-520.8" font-family="Times,serif" font-size="14.00">reset_password_token :varchar</text>
<text text-anchor="start" x="894" y="-505.8" font-family="Times,serif" font-size="14.00">reset_password_sent_at :datetime</text>
<text text-anchor="start" x="894" y="-490.8" font-family="Times,serif" font-size="14.00">remember_created_at :datetime</text>
<text text-anchor="start" x="894" y="-475.8" font-family="Times,serif" font-size="14.00">sign_in_count :integer</text>
<text text-anchor="start" x="894" y="-460.8" font-family="Times,serif" font-size="14.00">current_sign_in_at :datetime</text>
<text text-anchor="start" x="894" y="-445.8" font-family="Times,serif" font-size="14.00">last_sign_in_at :datetime</text>
<text text-anchor="start" x="894" y="-430.8" font-family="Times,serif" font-size="14.00">current_sign_in_ip :varchar</text>
<text text-anchor="start" x="894" y="-415.8" font-family="Times,serif" font-size="14.00">last_sign_in_ip :varchar</text>
<text text-anchor="start" x="894" y="-400.8" font-family="Times,serif" font-size="14.00">created_at :datetime</text>
<text text-anchor="start" x="894" y="-385.8" font-family="Times,serif" font-size="14.00">updated_at :datetime</text>
</g>
<!-- User -->
<g id="node7" class="node"><title>User</title>
<path fill="none" stroke="black" d="M680,-363C680,-363 856,-363 856,-363 862,-363 868,-369 868,-375 868,-375 868,-607 868,-607 868,-613 862,-619 856,-619 856,-619 680,-619 680,-619 674,-619 668,-613 668,-607 668,-607 668,-375 668,-375 668,-369 674,-363 680,-363"/>
<text text-anchor="middle" x="768" y="-603.8" font-family="Times,serif" font-size="14.00">User</text>
<polyline fill="none" stroke="black" points="668,-596 868,-596 "/>
<text text-anchor="start" x="676" y="-580.8" font-family="Times,serif" font-size="14.00">id :INTEGER</text>
<text text-anchor="start" x="676" y="-565.8" font-family="Times,serif" font-size="14.00">email :varchar</text>
<text text-anchor="start" x="676" y="-550.8" font-family="Times,serif" font-size="14.00">encrypted_password :varchar</text>
<text text-anchor="start" x="676" y="-535.8" font-family="Times,serif" font-size="14.00">username :varchar</text>
<text text-anchor="start" x="676" y="-520.8" font-family="Times,serif" font-size="14.00">usertype :varchar</text>
<text text-anchor="start" x="676" y="-505.8" font-family="Times,serif" font-size="14.00">reset_password_token :varchar</text>
<text text-anchor="start" x="676" y="-490.8" font-family="Times,serif" font-size="14.00">reset_password_sent_at :datetime</text>
<text text-anchor="start" x="676" y="-475.8" font-family="Times,serif" font-size="14.00">remember_created_at :datetime</text>
<text text-anchor="start" x="676" y="-460.8" font-family="Times,serif" font-size="14.00">sign_in_count :integer</text>
<text text-anchor="start" x="676" y="-445.8" font-family="Times,serif" font-size="14.00">current_sign_in_at :datetime</text>
<text text-anchor="start" x="676" y="-430.8" font-family="Times,serif" font-size="14.00">last_sign_in_at :datetime</text>
<text text-anchor="start" x="676" y="-415.8" font-family="Times,serif" font-size="14.00">current_sign_in_ip :varchar</text>
<text text-anchor="start" x="676" y="-400.8" font-family="Times,serif" font-size="14.00">last_sign_in_ip :varchar</text>
<text text-anchor="start" x="676" y="-385.8" font-family="Times,serif" font-size="14.00">created_at :datetime</text>
<text text-anchor="start" x="676" y="-370.8" font-family="Times,serif" font-size="14.00">updated_at :datetime</text>
</g>
<!-- User&#45;&gt;Stud -->
<g id="edge3" class="edge"><title>User&#45;&gt;Stud</title>
<path fill="none" stroke="#7df23f" d="M662.335,-365.659C661.22,-364.432 660.108,-363.211 659,-362 647.065,-348.952 634.106,-335.317 621.426,-322.25"/>
<ellipse fill="none" stroke="#7df23f" cx="665.253" cy="-368.888" rx="4.00002" ry="4.00002"/>
<ellipse fill="#7df23f" stroke="#7df23f" cx="618.414" cy="-319.156" rx="4.00002" ry="4.00002"/>
</g>
<!-- Stud&#45;&gt;Grade -->
<g id="edge4" class="edge"><title>Stud&#45;&gt;Grade</title>
<path fill="none" stroke="#3a199e" d="M515.101,-166.803C512.261,-160.114 509.398,-153.371 506.575,-146.723"/>
<ellipse fill="none" stroke="#3a199e" cx="516.756" cy="-170.702" rx="4.00002" ry="4.00002"/>
<polygon fill="#3a199e" stroke="#3a199e" points="506.385,-146.275 506.619,-135.312 504.431,-141.673 502.477,-137.07 502.477,-137.07 502.477,-137.07 504.431,-141.673 498.335,-138.829 506.385,-146.275 506.385,-146.275"/>
</g>
<!-- Stud&#45;&gt;Achievement -->
<g id="edge5" class="edge"><title>Stud&#45;&gt;Achievement</title>
<path fill="none" stroke="#e81142" d="M585.358,-166.803C588.303,-159.959 591.272,-153.057 594.196,-146.26"/>
<ellipse fill="none" stroke="#e81142" cx="583.678" cy="-170.71" rx="4.00002" ry="4.00002"/>
<polygon fill="#e81142" stroke="#e81142" points="594.197,-146.256 602.282,-138.848 596.173,-141.663 598.149,-137.07 598.149,-137.07 598.149,-137.07 596.173,-141.663 594.015,-135.292 594.197,-146.256 594.197,-146.256"/>
</g>
</g>
</svg>
